<svg width="122" height="122" xmlns="http://www.w3.org/2000/svg" xmlns:xlink="http://www.w3.org/1999/xlink" overflow="hidden"><defs><filter id="fx0" x="-10%" y="-10%" width="120%" height="120%" filterUnits="userSpaceOnUse" primitiveUnits="userSpaceOnUse"><feComponentTransfer color-interpolation-filters="sRGB"><feFuncR type="discrete" tableValues="1 1"/><feFuncG type="discrete" tableValues="0.752941 0.752941"/><feFuncB type="discrete" tableValues="0 0"/><feFuncA type="linear" slope="1" intercept="0"/></feComponentTransfer><feGaussianBlur stdDeviation="2.66667 2.66667"/></filter><clipPath id="clip1"><rect x="848" y="893" width="122" height="122"/></clipPath><clipPath id="clip2"><rect x="22" y="3" width="82" height="117"/></clipPath><clipPath id="clip3"><rect x="0" y="0" width="124" height="124"/></clipPath><clipPath id="clip4"><rect x="9" y="9" width="106" height="106"/></clipPath><clipPath id="clip5"><rect x="9" y="9" width="106" height="106"/></clipPath><clipPath id="clip6"><rect x="9" y="9" width="106" height="106"/></clipPath><clipPath id="clip7"><rect x="861" y="906" width="96" height="96"/></clipPath><clipPath id="clip8"><rect x="861" y="906" width="96" height="96"/></clipPath><clipPath id="clip9"><rect x="861" y="906" width="96" height="96"/></clipPath></defs><g clip-path="url(#clip1)" transform="translate(-848 -893)"><g clip-path="url(#clip2)" filter="url(#fx0)" transform="translate(847 892)"><g clip-path="url(#clip3)"><g clip-path="url(#clip4)"><g clip-path="url(#clip5)"><g clip-path="url(#clip6)"><path d="M91.117 39.285C91.029 38.955 90.952 38.625 90.853 38.306 90.6 37.525 90.49 37.404 89.643 37.415 88.9996 37.4157 88.3766 37.1898 87.883 36.777 87.5858 36.5529 87.3029 36.3104 87.036 36.051 86.5091 35.564 85.9167 35.153 85.276 34.83 84.8622 34.5634 84.3566 34.4798 83.879 34.599 83.1367 34.7575 82.3628 34.6647 81.679 34.335 81.13 34.1038 80.5147 34.0842 79.952 34.28L79.083 34.61C79.0672 34.5228 79.0672 34.4332 79.083 34.346 79.1937 34.024 79.1698 33.6712 79.017 33.367 78.8343 33.0775 78.5122 32.906 78.17 32.916 78.071 32.916 77.994 32.773 77.895 32.729 77.268 32.476 76.641 32.212 76.003 31.992 75.4101 31.672 74.6702 31.8876 74.342 32.476 74.2003 32.6417 74.0497 32.7995 73.891 32.949 73.8294 32.7069 73.8649 32.4503 73.99 32.234 74.078 32.003 74.122 31.75 74.188 31.508 73.8313 31.29 73.4178 31.1829 73 31.2 72.747 31.2 72.472 31.255 72.285 31.013 71.8009 31.2163 71.281 31.321 70.756 31.321 70.9284 30.9442 71.2398 30.6486 71.625 30.496 71.691 30.496 71.812 30.562 71.911 30.595 71.7836 30.3552 71.8284 30.0603 72.021 29.869 72.2878 29.6146 72.397 29.2364 72.307 28.879 71.5647 28.5039 71.0877 27.7523 71.064 26.921 71.0048 26.2828 70.6561 25.7071 70.118 25.359 69.8056 25.1533 69.5111 24.9215 69.238 24.666 68.8717 24.3466 68.4455 24.1036 67.984 23.951 67.0859 23.5703 66.101 23.4411 65.135 23.577 64.2735 23.7207 63.3937 23.4612 62.748 22.873 62.4358 22.6175 62.105 22.3858 61.758 22.18 61.6041 21.5609 61.2077 21.0297 60.658 20.706 60.0272 20.365 59.3426 20.1343 58.634 20.024 58.634 19.672 58.634 19.353 58.568 18.924 58.159 18.7433 57.736 18.5961 57.303 18.484 56.828 18.3953 56.4666 18.0071 56.412 17.527 55.6727 17.3727 54.9028 17.5451 54.3 18 53.6687 18.4639 52.8001 18.4273 52.21 17.912 51.9207 17.6771 51.5378 17.5915 51.176 17.681 50.6283 17.7965 50.0627 17.7965 49.515 17.681 49.4358 17.5937 49.3726 17.4932 49.328 17.384 49.2083 16.8767 48.7491 16.5231 48.228 16.537 47.2398 16.4867 46.268 16.8041 45.5 17.428 45.5 17.428 45.5 17.494 45.434 17.615 45.577 17.879 45.753 18.209 45.907 18.539 46.045 18.7732 46.045 19.0638 45.907 19.298 45.7539 19.5604 45.4171 19.6489 45.1547 19.4958 45.1488 19.4923 45.1428 19.4887 45.137 19.485L44.664 18.616 45.214 17.593C45.093 17.186 44.983 16.845 44.873 16.493 45.0922 16.3454 45.3017 16.1837 45.5 16.009 45.5947 15.9049 45.6354 15.7625 45.61 15.624 45.5546 15.4568 45.3741 15.3662 45.2068 15.4217 45.1864 15.4284 45.1667 15.4373 45.148 15.448 44.928 15.569 44.73 15.756 44.51 15.888 43.985 16.2386 43.4332 16.5475 42.86 16.812 42.3646 16.9636 41.8566 17.0704 41.342 17.131 40.8429 17.2124 40.45 17.6009 40.363 18.099 40.308 18.396 40.264 18.693 40.209 19.001 39.9911 19.1425 39.7818 19.2968 39.582 19.463 39.362 19.672 39.197 19.925 38.966 20.112 38.735 20.299 38.966 20.673 38.581 20.728 38.383 20.541 38.152 20.376 37.954 20.189 37.8718 20.7817 37.7052 21.3596 37.459 21.905 37.881 22.365 38.1197 22.9639 38.13 23.588 38.1795 24.1075 38.1795 24.6305 38.13 25.15 38.04 25.5283 38.1119 25.9268 38.328 26.25 38.1031 26.6598 37.8495 27.0531 37.569 27.427 37.382 27.647 37.052 27.724 36.821 27.911 36.7016 28.0448 36.6116 28.2022 36.557 28.373 36.106 29.407 36.117 29.407 35.072 29.836 34.9772 29.8966 34.8888 29.9667 34.808 30.045 34.7763 30.4967 34.6201 30.9306 34.357 31.299 33.8916 31.8886 33.7032 32.6504 33.84 33.389 33.8678 33.486 33.8678 33.589 33.84 33.686 34.104 34.324 34.621 33.972 34.94 34.148 35.074 34.5727 34.8899 35.0329 34.5 35.248 34.17 35.501 33.851 35.754 33.543 36.018 33.2249 36.2488 33.1104 36.67 33.268 37.03 33.345 37.239 33.356 37.514 33.499 37.657 33.818 37.976 33.499 38.295 33.554 38.636 33.686 38.724 33.84 38.834 34.005 38.922 34.3898 39.0838 34.7241 39.346 34.973 39.681 35.435 40.44 35.93 41.188 36.348 41.98 36.766 42.772 37.096 43.63 37.514 44.422 38.053 45.434 38.669 46.424 39.23 47.436 39.3814 47.645 39.4692 47.8933 39.483 48.151 39.3894 48.6727 39.5876 49.204 40 49.537 40.4919 50.108 41.0896 50.5787 41.76 50.923 42.442 51.231 43.102 51.583 43.762 51.946 44.3414 52.2033 44.8819 52.5402 45.368 52.947 45.6934 53.3 46.0387 53.6342 46.402 53.948 46.6758 54.1526 46.8481 54.4652 46.875 54.806 46.93 55.664 47.04 56.511 47.073 57.369 47.1532 58.4498 46.9955 59.5348 46.611 60.548 46.611 60.614 46.534 60.702 46.611 60.757 46.831 61.318 46.523 61.857 46.611 62.418 46.6903 63.2373 46.6233 64.0642 46.413 64.86 46.2211 65.9238 45.9377 66.969 45.566 67.984 45.4759 68.229 45.4759 68.498 45.566 68.743 45.7625 69.0834 45.7625 69.5027 45.566 69.843 45.2244 70.4293 45.1483 71.1333 45.357 71.779 45.5106 72.5488 45.5106 73.3412 45.357 74.111 45.181 74.914 44.818 75.651 44.708 76.465 44.6694 76.6137 44.6141 76.7577 44.543 76.894 44.312 77.444 44.103 77.994 43.861 78.544 43.619 79.094 43.443 79.82 42.761 80.194 42.915 81.03 43.047 81.844 43.223 82.647 43.2981 82.9788 43.2387 83.3268 43.058 83.615 42.5002 84.4973 42.367 85.583 42.695 86.574 41.881 87.135 42.233 88.048 41.958 88.774 42.53 88.884 42.761 88.774 42.761 88.301 42.761 88.048 42.607 87.817 42.761 87.531 42.873 87.248 42.9505 86.9525 42.992 86.651L43.322 86.431 43.806 86.145 44.202 87.245C43.8579 87.9555 43.6313 88.717 43.531 89.5 43.4638 90.3055 43.3126 91.1018 43.08 91.876 42.9791 92.4038 42.7571 92.9009 42.431 93.328L41.848 92.712 40.594 93.812C40.968 93.999 41.21 94.274 41.639 94.241 42.068 94.208 42.167 94.483 42.057 94.835 41.947 95.187 41.672 95.44 41.771 95.935L42.728 95.935 42.728 96.43 41.804 96.265C41.804 96.628 41.804 96.925 41.804 97.211 41.804 97.497 41.804 97.519 41.562 97.519 41.397 97.222 41.243 96.925 41.078 96.639 41.078 96.639 40.957 96.639 40.902 96.562L40.429 97.156 40.946 97.717 40.825 98.751C41.045 98.839 41.221 98.949 41.034 99.235L41.034 99.235C41.199 99.345 41.375 99.477 41.507 99.235 41.639 98.993 41.595 98.872 41.672 98.707 41.8349 98.5551 42.0117 98.4189 42.2 98.3L41.76 99.763C41.9278 100.111 42.0426 100.481 42.101 100.863 42.101 101.292 42.464 101.501 42.53 101.875 42.651 102.458 42.838 102.601 43.498 102.843 43.498 103.261 42.937 103.118 42.805 103.492 42.882 103.756 42.882 104.185 43.091 104.35 43.3 104.515 43.586 105.087 43.971 105.329 44.257 104.548 44.928 104.372 45.775 104.229 45.654 104.482 45.621 104.647 45.533 104.702 45.2785 104.84 45.0137 104.957 44.741 105.054 44.543 105.142 44.301 105.142 44.224 105.395 44.576 105.571 44.917 105.758 45.324 105.912 45.731 106.066 45.984 105.912 46.006 105.483 46.0206 105.001 46.1408 104.528 46.358 104.097 46.8362 103.837 47.3761 103.711 47.92 103.734 47.854 103.426 47.92 103.239 48.294 103.228 48.5417 103.237 48.7882 103.266 49.031 103.316 48.9942 103.098 48.9157 102.889 48.8 102.7 48.5198 102.253 48.3432 101.75 48.283 101.226 48.1133 100.66 48.3851 100.056 48.921 99.807 49.0828 99.7097 49.252 99.6251 49.427 99.554 49.8368 99.4325 50.1098 99.0458 50.087 98.619 50.1552 97.9723 50.5268 97.3966 51.088 97.068 51.242 96.958 51.418 96.881 51.583 96.782 52.0636 96.4809 52.392 95.9884 52.485 95.429 52.571 95.1631 52.4252 94.8778 52.1593 94.7919 52.1222 94.7799 52.0838 94.7722 52.045 94.769 51.4788 94.7388 50.9516 94.4712 50.593 94.032 50.142 93.592 50.131 93.328 50.406 92.723 50.5889 92.2099 50.9929 91.8061 51.506 91.623L52.54 91.304C52.606 91.172 52.639 90.996 52.738 90.908 53.0683 90.6472 53.2002 90.2076 53.068 89.808 52.9975 89.5096 53.0895 89.1961 53.31 88.983 53.464 88.807 53.651 88.675 53.805 88.521 53.959 88.367 53.805 88.389 53.805 88.323L53.464 87.949 53.86 87.421C53.6649 87.232 53.5014 87.0129 53.376 86.772 53.2809 86.3717 53.2292 85.9624 53.222 85.551 53.2692 85.3357 53.3549 85.1308 53.475 84.946L54.795 85.43C55.5121 85.6694 56.303 85.477 56.83 84.935 56.607 84.5783 56.607 84.1257 56.83 83.769 57.0265 83.4287 57.0265 83.0094 56.83 82.669 56.83 82.537 56.83 82.339 56.83 82.086 57.3761 82.3283 57.9861 82.3862 58.568 82.251 59.6535 82.1603 60.7223 81.9273 61.747 81.558 62.0645 81.4458 62.3536 81.2656 62.594 81.03 62.9548 80.5997 63.2787 80.1398 63.562 79.655 63.859 79.171 63.815 78.94 63.342 78.555 63.045 78.28 62.803 78.005 63.012 77.576 63.221 77.147 63.012 76.927 62.693 76.729 62.374 76.531 62.088 76.41 61.824 76.212 61.6849 76.0951 61.5946 75.9303 61.571 75.75 61.571 75.618 61.736 75.475 61.857 75.299 62.1691 75.665 62.6195 75.8842 63.1 75.904 63.32 75.9408 63.5299 76.0231 63.716 76.146 64.0833 76.3413 64.5033 76.4145 64.915 76.355 65.0988 76.3065 65.2922 76.3065 65.476 76.355 66.18 76.5775 66.9464 76.3086 67.357 75.695 67.83 75.167 68.215 74.595 68.732 74.067 68.8383 73.9605 68.9142 73.8277 68.952 73.682 69.106 73.187 69.469 72.78 69.458 72.208 69.4781 71.9429 69.6101 71.6989 69.821 71.537 70.1563 71.2368 70.413 70.8592 70.569 70.437 70.8 69.953 71.108 69.953 71.669 70.437 71.801 70.151 71.933 69.898 72.054 69.634 72.297 68.9947 72.7073 68.4325 73.242 68.006 73.7564 67.6734 74.0765 67.1111 74.1 66.499 74.1 66.169 74.045 65.828 74.045 65.487 74.045 64.079 73.902 63.859 75.2 62.781 75.8681 62.1216 76.6767 61.6215 77.565 61.318 78.0077 61.2222 78.4196 61.018 78.764 60.724 79.1794 60.3478 79.736 60.1676 80.293 60.229 80.9696 60.222 81.6452 60.1779 82.317 60.097 82.416 59.426 83.032 59.283 83.417 58.997 83.5218 58.5282 83.6921 58.0763 83.923 57.655 84.308 57.138 84.561 56.555 84.924 56.038 85.1207 55.7631 85.2176 55.4295 85.199 55.092 85.1652 54.6012 85.2969 54.1132 85.573 53.706 85.7044 53.486 85.7938 53.2436 85.837 52.991 85.925 52.628 85.936 52.243 86.035 51.891 86.1651 51.3099 86.1912 50.7103 86.112 50.12 85.9498 49.0838 86.0872 48.0228 86.508 47.062 87.234 46.996 87.245 47.062 87.542 46.534 87.7104 46.2885 87.8542 46.0269 87.971 45.753 88.2308 45.1998 88.6059 44.7085 89.071 44.312 89.5 43.894 89.918 43.454 90.325 43.014 91.2459 42.0067 91.549 40.5796 91.117 39.285ZM43.817 103.954C44.367 103.624 44.367 103.624 45.181 103.822 44.7587 104.021 44.2808 104.067 43.828 103.954Z"/><path d="M47.909 103.679C48.1418 103.781 48.3806 103.87 48.624 103.943 48.9366 103.966 49.1802 104.224 49.185 104.537 49.1848 104.68 49.2227 104.821 49.295 104.944 50.1793 106.169 51.4629 107.048 52.925 107.43 52.925 107.43 52.925 107.43 52.925 107.507 52.2905 107.777 51.5991 107.887 50.912 107.826L50.637 108.266 49.768 108.2 49.614 107.65C49.174 107.386 49.053 108.134 48.657 107.925L47.909 108.442C47.403 108.288 47.535 107.969 47.568 107.595L46.468 107.683 45.577 107.045C46.028 106.781 46.424 107.045 46.809 106.979L47.909 106.858C47.909 106.572 47.623 106.583 47.48 106.473 46.996 106.11 46.996 105.956 47.535 105.582 47.667 105.494 47.777 105.373 48.041 105.142 47.7296 105.16 47.4174 105.16 47.106 105.142 46.9664 105.136 46.8371 105.067 46.754 104.955 46.743 104.816 46.7864 104.678 46.875 104.57 47.0042 104.441 47.144 104.323 47.293 104.218L47.854 103.69Z"/><path d="M60.416 102.909C60.548 102.403 61.076 102.216 61.186 101.721L61.769 101.853C61.934 101.853 62.11 101.853 62.297 101.853 62.297 101.985 62.297 102.15 62.297 102.194 61.7296 102.567 61.0877 102.811 60.416 102.909Z"/><path d="M44.213 105.285C44.213 105.56 44.444 105.868 44.059 106.154 43.729 105.967 43.201 106.154 43.025 105.56 43.267 105.109 43.751 105.56 44.037 105.296L44.235 105.296Z"/><path d="M60.273 102.062C60.097 102.645 59.569 102.766 58.997 103.019 59.173 102.733 59.316 102.535 59.426 102.326 59.668 101.875 59.668 101.864 60.273 102.062Z"/><path d="M55.213 87.531C55.213 87.685 55.213 87.795 55.136 87.894 55.059 87.993 54.784 88.158 54.685 88.048 54.6055 87.9389 54.5596 87.8089 54.553 87.674 54.5609 87.6013 54.5964 87.5344 54.652 87.487 54.751 87.388 54.872 87.245 54.971 87.256 55.07 87.267 55.147 87.443 55.213 87.531Z"/><path d="M46.655 106 46.468 106.473C46.237 106.407 46.281 106.253 46.325 106.132 46.369 106.011 46.457 105.989 46.523 105.912Z"/><path d="M45.5 106.517 44.851 106.363C44.851 106.033 45.06 106.121 45.203 106.22 45.311 106.307 45.404 106.411 45.478 106.528Z"/><path d="M49.009 108.112C49.086 108.299 49.163 108.387 49.163 108.475 49.163 108.563 49.02 108.596 48.932 108.607 48.844 108.618 48.8 108.53 48.8 108.508 48.8594 108.371 48.9293 108.239 49.009 108.112Z"/></g></g></g></g></g><g clip-path="url(#clip7)"><g clip-path="url(#clip8)"><g clip-path="url(#clip9)"><path d="M935.47 933.35C935.39 933.05 935.32 932.75 935.23 932.46 935 931.75 934.9 931.64 934.13 931.65 933.545 931.651 932.979 931.445 932.53 931.07 932.26 930.866 932.003 930.646 931.76 930.41 931.281 929.967 930.742 929.594 930.16 929.3 929.784 929.058 929.324 928.982 928.89 929.09 928.215 929.234 927.512 929.15 926.89 928.85 926.391 928.64 925.831 928.622 925.32 928.8L924.53 929.1C924.516 929.021 924.516 928.939 924.53 928.86 924.631 928.567 924.609 928.247 924.47 927.97 924.304 927.707 924.011 927.551 923.7 927.56 923.61 927.56 923.54 927.43 923.45 927.39 922.88 927.16 922.31 926.92 921.73 926.72 921.191 926.429 920.518 926.625 920.22 927.16 920.091 927.311 919.954 927.454 919.81 927.59 919.754 927.37 919.786 927.137 919.9 926.94 919.98 926.73 920.02 926.5 920.08 926.28 919.756 926.082 919.38 925.984 919 926 918.77 926 918.52 926.05 918.35 925.83 917.91 926.015 917.437 926.11 916.96 926.11 917.117 925.767 917.4 925.499 917.75 925.36 917.81 925.36 917.92 925.42 918.01 925.45 917.894 925.232 917.935 924.964 918.11 924.79 918.352 924.559 918.452 924.215 918.37 923.89 917.695 923.549 917.261 922.866 917.24 922.11 917.186 921.53 916.869 921.006 916.38 920.69 916.096 920.503 915.828 920.292 915.58 920.06 915.247 919.77 914.859 919.549 914.44 919.41 913.623 919.064 912.728 918.946 911.85 919.07 911.067 919.201 910.267 918.965 909.68 918.43 909.396 918.198 909.095 917.987 908.78 917.8 908.64 917.237 908.28 916.754 907.78 916.46 907.206 916.15 906.584 915.94 905.94 915.84 905.94 915.52 905.94 915.23 905.88 914.84 905.508 914.676 905.124 914.542 904.73 914.44 904.298 914.359 903.97 914.006 903.92 913.57 903.248 913.43 902.548 913.586 902 914 901.426 914.422 900.636 914.388 900.1 913.92 899.837 913.706 899.489 913.629 899.16 913.71 898.662 913.815 898.148 913.815 897.65 913.71 897.578 913.631 897.521 913.539 897.48 913.44 897.371 912.979 896.954 912.657 896.48 912.67 895.582 912.624 894.698 912.913 894 913.48 894 913.48 894 913.54 893.94 913.65 894.07 913.89 894.23 914.19 894.37 914.49 894.495 914.703 894.495 914.967 894.37 915.18 894.231 915.419 893.925 915.499 893.686 915.36 893.681 915.357 893.675 915.353 893.67 915.35L893.24 914.56 893.74 913.63C893.63 913.26 893.53 912.95 893.43 912.63 893.629 912.496 893.82 912.349 894 912.19 894.086 912.095 894.123 911.966 894.1 911.84 894.05 911.688 893.885 911.606 893.733 911.656 893.715 911.662 893.697 911.67 893.68 911.68 893.48 911.79 893.3 911.96 893.1 912.08 892.623 912.399 892.121 912.68 891.6 912.92 891.15 913.058 890.688 913.155 890.22 913.21 889.766 913.284 889.409 913.637 889.33 914.09 889.28 914.36 889.24 914.63 889.19 914.91 888.992 915.039 888.802 915.179 888.62 915.33 888.42 915.52 888.27 915.75 888.06 915.92 887.85 916.09 888.06 916.43 887.71 916.48 887.53 916.31 887.32 916.16 887.14 915.99 887.065 916.529 886.914 917.054 886.69 917.55 887.074 917.968 887.291 918.513 887.3 919.08 887.345 919.552 887.345 920.028 887.3 920.5 887.218 920.844 887.284 921.206 887.48 921.5 887.276 921.872 887.045 922.23 886.79 922.57 886.62 922.77 886.32 922.84 886.11 923.01 886.001 923.132 885.92 923.275 885.87 923.43 885.46 924.37 885.47 924.37 884.52 924.76 884.434 924.815 884.353 924.879 884.28 924.95 884.251 925.361 884.109 925.755 883.87 926.09 883.447 926.626 883.276 927.318 883.4 927.99 883.425 928.078 883.425 928.172 883.4 928.26 883.64 928.84 884.11 928.52 884.4 928.68 884.522 929.066 884.354 929.484 884 929.68 883.7 929.91 883.41 930.14 883.13 930.38 882.841 930.59 882.737 930.973 882.88 931.3 882.95 931.49 882.96 931.74 883.09 931.87 883.38 932.16 883.09 932.45 883.14 932.76 883.26 932.84 883.4 932.94 883.55 933.02 883.9 933.167 884.204 933.405 884.43 933.71 884.85 934.4 885.3 935.08 885.68 935.8 886.06 936.52 886.36 937.3 886.74 938.02 887.23 938.94 887.79 939.84 888.3 940.76 888.438 940.95 888.517 941.176 888.53 941.41 888.445 941.884 888.625 942.367 889 942.67 889.447 943.189 889.99 943.617 890.6 943.93 891.22 944.21 891.82 944.53 892.42 944.86 892.947 945.094 893.438 945.4 893.88 945.77 894.176 946.091 894.49 946.395 894.82 946.68 895.069 946.866 895.226 947.15 895.25 947.46 895.3 948.24 895.4 949.01 895.43 949.79 895.503 950.773 895.359 951.759 895.01 952.68 895.01 952.74 894.94 952.82 895.01 952.87 895.21 953.38 894.93 953.87 895.01 954.38 895.082 955.125 895.021 955.877 894.83 956.6 894.656 957.567 894.398 958.517 894.06 959.44 893.978 959.663 893.978 959.907 894.06 960.13 894.239 960.439 894.239 960.821 894.06 961.13 893.749 961.663 893.68 962.303 893.87 962.89 894.01 963.59 894.01 964.31 893.87 965.01 893.71 965.74 893.38 966.41 893.28 967.15 893.245 967.285 893.195 967.416 893.13 967.54 892.92 968.04 892.73 968.54 892.51 969.04 892.29 969.54 892.13 970.2 891.51 970.54 891.65 971.3 891.77 972.04 891.93 972.77 891.998 973.072 891.944 973.388 891.78 973.65 891.273 974.452 891.152 975.439 891.45 976.34 890.71 976.85 891.03 977.68 890.78 978.34 891.3 978.44 891.51 978.34 891.51 977.91 891.51 977.68 891.37 977.47 891.51 977.21 891.612 976.953 891.682 976.684 891.72 976.41L892.02 976.21 892.46 975.95 892.82 976.95C892.507 977.596 892.301 978.288 892.21 979 892.149 979.732 892.011 980.456 891.8 981.16 891.708 981.64 891.506 982.092 891.21 982.48L890.68 981.92 889.54 982.92C889.88 983.09 890.1 983.34 890.49 983.31 890.88 983.28 890.97 983.53 890.87 983.85 890.77 984.17 890.52 984.4 890.61 984.85L891.48 984.85 891.48 985.3 890.64 985.15C890.64 985.48 890.64 985.75 890.64 986.01 890.64 986.27 890.64 986.29 890.42 986.29 890.27 986.02 890.13 985.75 889.98 985.49 889.98 985.49 889.87 985.49 889.82 985.42L889.39 985.96 889.86 986.47 889.75 987.41C889.95 987.49 890.11 987.59 889.94 987.85L889.94 987.85C890.09 987.95 890.25 988.07 890.37 987.85 890.49 987.63 890.45 987.52 890.52 987.37 890.668 987.232 890.829 987.108 891 987L890.6 988.33C890.753 988.646 890.857 988.983 890.91 989.33 890.91 989.72 891.24 989.91 891.3 990.25 891.41 990.78 891.58 990.91 892.18 991.13 892.18 991.51 891.67 991.38 891.55 991.72 891.62 991.96 891.62 992.35 891.81 992.5 892 992.65 892.26 993.17 892.61 993.39 892.87 992.68 893.48 992.52 894.25 992.39 894.14 992.62 894.11 992.77 894.03 992.82 893.799 992.945 893.558 993.052 893.31 993.14 893.13 993.22 892.91 993.22 892.84 993.45 893.16 993.61 893.47 993.78 893.84 993.92 894.21 994.06 894.44 993.92 894.46 993.53 894.473 993.092 894.583 992.662 894.78 992.27 895.215 992.033 895.706 991.919 896.2 991.94 896.14 991.66 896.2 991.49 896.54 991.48 896.765 991.488 896.989 991.515 897.21 991.56 897.177 991.362 897.105 991.172 897 991 896.745 990.594 896.585 990.136 896.53 989.66 896.376 989.146 896.623 988.596 897.11 988.37 897.257 988.281 897.411 988.205 897.57 988.14 897.943 988.029 898.191 987.678 898.17 987.29 898.232 986.702 898.57 986.179 899.08 985.88 899.22 985.78 899.38 985.71 899.53 985.62 899.967 985.346 900.265 984.898 900.35 984.39 900.428 984.148 900.296 983.889 900.054 983.811 900.02 983.8 899.985 983.793 899.95 983.79 899.435 983.763 898.956 983.519 898.63 983.12 898.22 982.72 898.21 982.48 898.46 981.93 898.626 981.464 898.994 981.096 899.46 980.93L900.4 980.64C900.46 980.52 900.49 980.36 900.58 980.28 900.88 980.043 901 979.643 900.88 979.28 900.816 979.009 900.899 978.724 901.1 978.53 901.24 978.37 901.41 978.25 901.55 978.11 901.69 977.97 901.55 977.99 901.55 977.93L901.24 977.59 901.6 977.11C901.423 976.938 901.274 976.739 901.16 976.52 901.073 976.156 901.026 975.784 901.02 975.41 901.063 975.214 901.141 975.028 901.25 974.86L902.45 975.3C903.102 975.518 903.821 975.343 904.3 974.85 904.097 974.526 904.097 974.114 904.3 973.79 904.479 973.481 904.479 973.099 904.3 972.79 904.3 972.67 904.3 972.49 904.3 972.26 904.796 972.48 905.351 972.533 905.88 972.41 906.867 972.328 907.838 972.116 908.77 971.78 909.059 971.678 909.321 971.514 909.54 971.3 909.868 970.909 910.162 970.491 910.42 970.05 910.69 969.61 910.65 969.4 910.22 969.05 909.95 968.8 909.73 968.55 909.92 968.16 910.11 967.77 909.92 967.57 909.63 967.39 909.34 967.21 909.08 967.1 908.84 966.92 908.714 966.814 908.631 966.664 908.61 966.5 908.61 966.38 908.76 966.25 908.87 966.09 909.154 966.423 909.563 966.622 910 966.64 910.2 966.673 910.391 966.748 910.56 966.86 910.894 967.037 911.276 967.104 911.65 967.05 911.817 967.006 911.993 967.006 912.16 967.05 912.8 967.252 913.497 967.008 913.87 966.45 914.3 965.97 914.65 965.45 915.12 964.97 915.217 964.873 915.286 964.752 915.32 964.62 915.46 964.17 915.79 963.8 915.78 963.28 915.798 963.039 915.918 962.817 916.11 962.67 916.415 962.397 916.648 962.054 916.79 961.67 917 961.23 917.28 961.23 917.79 961.67 917.91 961.41 918.03 961.18 918.14 960.94 918.361 960.359 918.734 959.848 919.22 959.46 919.688 959.158 919.979 958.646 920 958.09 920 957.79 919.95 957.48 919.95 957.17 919.95 955.89 919.82 955.69 921 954.71 921.607 954.11 922.342 953.656 923.15 953.38 923.552 953.293 923.927 953.107 924.24 952.84 924.618 952.498 925.124 952.334 925.63 952.39 926.245 952.384 926.859 952.344 927.47 952.27 927.56 951.66 928.12 951.53 928.47 951.27 928.565 950.844 928.72 950.433 928.93 950.05 929.28 949.58 929.51 949.05 929.84 948.58 930.019 948.33 930.107 948.027 930.09 947.72 930.059 947.274 930.179 946.83 930.43 946.46 930.549 946.26 930.631 946.04 930.67 945.81 930.75 945.48 930.76 945.13 930.85 944.81 930.968 944.282 930.992 943.737 930.92 943.2 930.773 942.258 930.897 941.293 931.28 940.42 931.94 940.36 931.95 940.42 932.22 939.94 932.373 939.717 932.504 939.479 932.61 939.23 932.846 938.727 933.187 938.28 933.61 937.92 934 937.54 934.38 937.14 934.75 936.74 935.587 935.824 935.863 934.527 935.47 933.35ZM892.47 992.14C892.97 991.84 892.97 991.84 893.71 992.02 893.326 992.201 892.892 992.243 892.48 992.14Z"/><path d="M896.19 991.89C896.402 991.983 896.619 992.063 896.84 992.13 897.124 992.151 897.346 992.385 897.35 992.67 897.35 992.8 897.384 992.928 897.45 993.04 898.254 994.154 899.421 994.953 900.75 995.3 900.75 995.3 900.75 995.3 900.75 995.37 900.173 995.616 899.545 995.715 898.92 995.66L898.67 996.06 897.88 996 897.74 995.5C897.34 995.26 897.23 995.94 896.87 995.75L896.19 996.22C895.73 996.08 895.85 995.79 895.88 995.45L894.88 995.53 894.07 994.95C894.48 994.71 894.84 994.95 895.19 994.89L896.19 994.78C896.19 994.52 895.93 994.53 895.8 994.43 895.36 994.1 895.36 993.96 895.85 993.62 895.97 993.54 896.07 993.43 896.31 993.22 896.027 993.237 895.743 993.237 895.46 993.22 895.333 993.215 895.216 993.152 895.14 993.05 895.13 992.924 895.169 992.798 895.25 992.7 895.367 992.583 895.495 992.476 895.63 992.38L896.14 991.9Z"/><path d="M907.56 991.19C907.68 990.73 908.16 990.56 908.26 990.11L908.79 990.23C908.94 990.23 909.1 990.23 909.27 990.23 909.27 990.35 909.27 990.5 909.27 990.54 908.754 990.879 908.171 991.101 907.56 991.19Z"/><path d="M892.83 993.35C892.83 993.6 893.04 993.88 892.69 994.14 892.39 993.97 891.91 994.14 891.75 993.6 891.97 993.19 892.41 993.6 892.67 993.36L892.85 993.36Z"/><path d="M907.43 990.42C907.27 990.95 906.79 991.06 906.27 991.29 906.43 991.03 906.56 990.85 906.66 990.66 906.88 990.25 906.88 990.24 907.43 990.42Z"/><path d="M902.83 977.21C902.83 977.35 902.83 977.45 902.76 977.54 902.69 977.63 902.44 977.78 902.35 977.68 902.278 977.581 902.236 977.463 902.23 977.34 902.237 977.274 902.269 977.213 902.32 977.17 902.41 977.08 902.52 976.95 902.61 976.96 902.7 976.97 902.77 977.13 902.83 977.21Z"/><path d="M895.05 994 894.88 994.43C894.67 994.37 894.71 994.23 894.75 994.12 894.79 994.01 894.87 993.99 894.93 993.92Z"/><path d="M894 994.47 893.41 994.33C893.41 994.03 893.6 994.11 893.73 994.2 893.828 994.279 893.913 994.373 893.98 994.48Z"/><path d="M897.19 995.92C897.26 996.09 897.33 996.17 897.33 996.25 897.33 996.33 897.2 996.36 897.12 996.37 897.04 996.38 897 996.3 897 996.28 897.054 996.155 897.117 996.035 897.19 995.92Z"/></g></g></g></g></svg>